<?xml version="1.0" standalone="no"?><!DOCTYPE svg PUBLIC "-//W3C//DTD SVG 1.1//EN" "http://www.w3.org/Graphics/SVG/1.1/DTD/svg11.dtd">
<svg t="1509612037175" class="icon" style="" viewBox="0 0 1024 1024" version="1.1" xmlns="http://www.w3.org/2000/svg" p-id="993"
     xmlns:xlink="http://www.w3.org/1999/xlink" width="20" height="20">
    <defs>
        <style type="text/css"></style>
    </defs>
    <path d="M512 908.153535l-4.783838-0.90505c-71.628283-13.705051-157.478788-56.113131-235.571718-116.492929-41.244444-31.935354-78.092929-67.10303-109.381818-104.59798-34.391919-41.373737-61.155556-84.29899-79.515151-127.870707-23.531313-55.854545-33.228283-116.234343-28.185859-174.804041 4.783838-55.725253 22.755556-108.347475 51.846465-152.177777 47.967677-72.274747 121.793939-113.777778 202.472727-113.777778 35.426263 0 71.628283 7.886869 107.830303 23.272727 32.064646 13.705051 64 33.486869 95.288889 58.828283 31.288889-25.341414 63.224242-45.123232 95.288889-58.828283 36.072727-15.515152 72.40404-23.272727 107.830303-23.272727 80.678788 0 154.505051 41.50303 202.472727 113.777778 29.090909 43.830303 47.062626 96.452525 51.846465 152.177777 5.042424 58.569697-4.654545 118.949495-28.185859 174.804041-18.359596 43.442424-45.123232 86.49697-79.515151 127.741414-31.288889 37.494949-68.008081 72.662626-109.381818 104.59798-77.963636 60.379798-163.814141 102.787879-235.571718 116.492929l-4.783838 1.034343z"
          fill="#fe8e8f" p-id="994"></path>
</svg>