<?xml version="1.0" standalone="no"?><!DOCTYPE svg PUBLIC "-//W3C//DTD SVG 1.1//EN" "http://www.w3.org/Graphics/SVG/1.1/DTD/svg11.dtd"><svg t="1509612579930" class="icon" style="" viewBox="0 0 1024 1024" version="1.1" xmlns="http://www.w3.org/2000/svg" p-id="1781" xmlns:xlink="http://www.w3.org/1999/xlink" width="20" height="20"><defs><style type="text/css"></style></defs><path d="M510.528512 305.33632C395.805696 33.86368 66.403328 167.896064 66.403328 435.961856c-2.271232 172.65152 155.614208 293.054464 260.114432 362.341376 102.227968 67.016704 172.65152 98.82112 185.146368 98.82112 13.630464 0 90.86976-34.076672 184.010752-99.956736 103.364608-73.831424 262.385664-189.689856 261.249024-363.478016C956.923904 162.21696 628.658176 36.135936 510.528512 305.33632zM905.94304 441.216c0.946176 144.671744-127.164416 235.69408-220.705792 302.1568-4.496384 3.19488-8.906752 6.32832-13.154304 9.362432-84.117504 59.498496-147.91168 90.326016-160.328704 93.118464-12.145664-2.932736-69.697536-31.865856-161.938432-92.335104-52.834304-35.03104-108.215296-73.416704-153.603072-123.4176-53.916672-59.396096-79.702016-120.46336-78.830592-186.691584l0.001024-0.201728c0-155.05408 96.093184-236.181504 191.015936-236.181504 38.448128 0 75.583488 13.012992 107.389952 37.634048 35.207168 27.251712 62.971904 68.461568 80.293888 119.176192l13.288448 38.90688 15.476736-38.089728c21.059584-51.827712 51.646464-93.912064 88.454144-121.703424 33.286144-25.131008 71.033856-38.41536 109.162496-38.41536 48.32256 0 93.21984 21.161984 126.420992 59.587584C886.212608 307.32288 905.94304 368.526336 905.94304 441.216z" p-id="1782" fill="#999999"></path></svg>